<svg width="134" height="134" viewBox="0 0 134 134" fill="none" xmlns="http://www.w3.org/2000/svg">
<path d="M30.5 62.5L39.5 55L63 49.5L77.5 44L93 30.5L103.5 35L113.5 37L119 41L117 48.5L112.5 57L105.5 62.5L101 68.5L96 72.5L93 79L88.5 84.5L93 90L107 95.5L105.5 99H77L72.5 103.5L22 103L16 97L20.5 88L15.5 86L19 77.5L30.5 62.5Z" fill="#003101"/>
<path d="M21.2725 74.8516C25.4181 69.5544 29.5079 64.2083 34.1491 59.3857C38.3575 55.0168 43.878 52.1832 50.3198 51.6668C52.588 51.4853 54.8284 51.2131 57.0338 50.8363C66.4068 49.245 75.1866 45.8531 83.0382 40.0674C85.2785 38.4133 86.8418 35.859 88.8099 33.8071C92.5996 29.8429 94.6654 29.8359 98.9995 33.0533C100.43 34.1142 102.377 34.6306 104.164 35.0354C107.298 35.7473 110.62 35.8101 113.635 36.8221C118.841 38.5599 119.909 41.526 117.913 46.6069C114.877 54.3537 109.44 59.9929 102.95 65.0109C98.5528 68.4098 94.6934 72.4717 92.8578 78.1318C92.0064 80.7629 90.0103 83.0242 88.6494 85.2575C91.462 88.8448 95.0144 90.0661 97.8968 93.7372C101.875 93.7372 104.513 94.5328 106.258 95.5238C108.044 96.5358 107.319 99.2717 105.26 99.2717H75.0261" stroke="white" stroke-width="3.48958" stroke-miterlimit="10" stroke-linecap="round" stroke-linejoin="round"/>
<path d="M21.2307 74.9004C21.2376 74.8865 21.2446 74.8795 21.2586 74.8655" stroke="white" stroke-width="3.48958" stroke-miterlimit="10" stroke-linecap="round" stroke-linejoin="round"/>
<path d="M21.2028 74.9356C21.2098 74.9285 21.2169 74.9215 21.2169 74.9144" stroke="white" stroke-width="3.48958" stroke-miterlimit="10" stroke-linecap="round" stroke-linejoin="round"/>
<path d="M39.1043 83.9036C39.1043 83.9036 45.9649 82.6124 52.7765 90.7501C59.5882 98.8878 69.7917 95.0353 69.7917 95.0353C70.2663 95.0353 70.72 95.0493 71.1527 95.0702C73.7978 95.2098 75.075 97.2547 75.0261 99.2577C74.9773 101.275 73.5884 103.264 70.9224 103.264H25.816C25.816 103.264 20.791 103.138 19.0532 101.324C17.7202 99.9277 16.8966 98.4761 16.5686 97.0733C15.8288 93.9257 17.5457 90.9804 21.4819 89.2845C22.1101 89.0123 22.7452 88.782 23.3314 88.0701C22.117 88.0701 20.9097 88.0841 19.6953 88.0701C15.4031 88.0143 14.084 85.8857 15.9963 82.0122C16.5198 80.9514 17.2177 79.9464 17.9644 79.0182C19.0462 77.6782 20.114 76.3242 21.1749 74.9633" stroke="white" stroke-width="3.48958" stroke-miterlimit="10" stroke-linecap="round" stroke-linejoin="round"/>
<path d="M94.5538 39.6905H94.833" stroke="white" stroke-width="3.48958" stroke-miterlimit="10" stroke-linecap="round" stroke-linejoin="round"/>
<path d="M21.1818 74.9633C21.1818 74.9633 21.1888 74.9563 21.2028 74.9353C21.2097 74.9284 21.2167 74.9214 21.2167 74.9144C21.2167 74.9074 21.2237 74.9074 21.2237 74.9004C21.2307 74.8935 21.2377 74.8795 21.2516 74.8656C21.2586 74.8586 21.2586 74.8516 21.2656 74.8516C22.117 73.7977 29.0892 65.9113 40.8282 74.0211C53.3767 82.6822 57.0338 50.8433 57.0338 50.8433" stroke="white" stroke-width="3.48958" stroke-miterlimit="10" stroke-linecap="round" stroke-linejoin="round"/>
<path d="M75.6403 66.7697C75.6403 69.4497 72.7648 71.6272 69.2194 71.6272C65.674 71.6272 62.7986 69.4497 62.7986 66.7697C62.7986 64.0897 65.674 61.9122 69.2194 61.9122C72.7648 61.9191 75.6403 64.0897 75.6403 66.7697Z" stroke="white" stroke-width="3.48958" stroke-miterlimit="10" stroke-linecap="round" stroke-linejoin="round"/>
<path d="M16.5686 97.0733C16.5686 97.0733 42.7824 93.9675 53.949 103.271" stroke="white" stroke-width="3.48958" stroke-miterlimit="10" stroke-linecap="round" stroke-linejoin="round"/>
<path d="M117.92 46.6069C117.92 46.6069 104.757 52.5531 91.6365 52.274C78.5157 51.9948 88.6494 85.2575 88.6494 85.2575" stroke="white" stroke-width="3.48958" stroke-miterlimit="10" stroke-linecap="round" stroke-linejoin="round"/>
</svg>
